PathFileType	4	(X/Y/Z)	./resultDataOpenSim/trcMotMarkerGrf/sub06/qtm-02-03.trc
DataRate	CameraRate	NumFrames	NumMarkers	Units	OrigDataRate	OrigDataStartFrame	OrigNumFrames
250.000000	250.000000	12	24	m	250.000000	452	516
Frame#	Time	L.Toe.Tip			R.Toe.Tip			L.Ankle.Lat			R.Ankle.Lat			L.Ankle.Med			R.Ankle.Med			L.Heel			R.Heel			L.Knee.Lat			R.Knee.Lat			L.Knee.Med			R.Knee.Med			L.Thigh.Upper			R.Thigh.Upper			L.ASIS			R.ASIS			V.Sacral			L.Acromium			R.Acromium			C7			L.Elbow			R.Elbow			L.Wrist.Lat			R.Wrist.Lat
		X1	Y1	Z1	X2	Y2	Z2	X3	Y3	Z3	X4	Y4	Z4	X5	Y5	Z5	X6	Y6	Z6	X7	Y7	Z7	X8	Y8	Z8	X9	Y9	Z9	X10	Y10	Z10	X11	Y11	Z11	X12	Y12	Z12	X13	Y13	Z13	X14	Y14	Z14	X15	Y15	Z15	X16	Y16	Z16	X17	Y17	Z17	X18	Y18	Z18	X19	Y19	Z19	X20	Y20	Z20	X21	Y21	Z21	X22	Y22	Z22	X23	Y23	Z23	X24	Y24	Z24

452	1.804	1.6415948	0.033362825	-0.0084238628	1.4213467	0.076503987	0.16194435	1.5171519	0.068689931	-0.03845506	1.3527405	0.1957004	0.17304821	1.5154907	0.085202949	0.047370638	1.3934786	0.19442695	0.093860662	1.4409976	0.043562802	0.0024009372	1.3088046	0.21736625	0.1041069	1.5978189	0.43596143	-0.058198348	1.6289233	0.45564163	0.20900487	1.5621427	0.43744636	0.058785955	1.6404477	0.4364678	0.07420297	1.5405878	0.8273683	-0.1381676	1.4963014	0.80012402	0.19994085	1.6054368	0.87585314	-0.085462097	1.584341	0.86726249	0.15962194	1.4064927	0.93594363	0.02801399	1.5167439	1.3462804	-0.15805634	1.4971685	1.346442	0.20399128	1.4259738	1.3776128	0.016454005	1.4864758	1.0248345	-0.20778649	1.4499416	1.0291505	0.2702713	1.6580068	0.84702064	-0.21266754	1.6294428	0.86116292	0.27866269
453	1.808	1.6416635	0.033369536	-0.0084447456	1.4408378	0.07569099	0.1633287	1.5172009	0.068943335	-0.038510109	1.3679743	0.19270703	0.17313009	1.5153042	0.085443446	0.047342607	1.4089257	0.19196809	0.093714239	1.4410953	0.043982972	0.0024552489	1.3234526	0.21249717	0.10398368	1.5983998	0.43603377	-0.058354845	1.6392375	0.45849845	0.20841537	1.5629109	0.43749603	0.058819776	1.6500109	0.44023326	0.073752008	1.5456609	0.82807808	-0.13819782	1.5030325	0.8021722	0.20039246	1.6108471	0.87693039	-0.085900488	1.5907252	0.86918009	0.15898446	1.4122917	0.93707239	0.028067563	1.5225797	1.3479435	-0.15803953	1.5030525	1.3475749	0.20384197	1.4317547	1.3787436	0.016373796	1.4945498	1.0260418	-0.20838286	1.4528631	1.0308728	0.26931437	1.669137	0.85086069	-0.21169029	1.6291588	0.85957919	0.27973558
454	1.812	1.6417441	0.033372648	-0.008476955	1.4599584	0.074774169	0.16463905	1.517256	0.069199783	-0.03853593	1.3833104	0.18957303	0.17323625	1.5150538	0.085686317	0.047302906	1.424483	0.18937085	0.093600725	1.4412175	0.044400306	0.0025498198	1.3381911	0.20746004	0.10394417	1.5989691	0.43610535	-0.058524142	1.6494485	0.46125701	0.20780104	1.5637615	0.4375926	0.058876309	1.6593813	0.44395262	0.073412918	1.5508443	0.82876306	-0.13816727	1.5098286	0.80416724	0.20085518	1.6163472	0.87794929	-0.086311006	1.5971819	0.87104177	0.15834336	1.4180019	0.93808	0.028215821	1.528481	1.3495516	-0.15804838	1.5089589	1.348622	0.2037036	1.4375356	1.3798022	0.016306704	1.5025751	1.0272129	-0.20894798	1.4554781	1.0324697	0.26834137	1.6802308	0.85474571	-0.21071424	1.6288313	0.8580555	0.28079733
455	1.816	1.6418289	0.033372755	-0.0085190256	1.4786762	0.073738751	0.16589284	1.5173202	0.069462666	-0.038529311	1.3987963	0.1863034	0.17337481	1.5147984	0.085932558	0.047265523	1.4401427	0.18662663	0.093575835	1.4413651	0.044816058	0.0026997087	1.3531645	0.20229421	0.1039756	1.5995294	0.43617676	-0.058698203	1.6595713	0.46392075	0.2071615	1.5648478	0.43782553	0.058935985	1.668519	0.44759505	0.073139644	1.5560625	0.82941782	-0.13801018	1.5166904	0.80610392	0.20132678	1.6216576	0.8788768	-0.086742086	1.6036529	0.87284934	0.15769878	1.4236873	0.93899565	0.028462506	1.5344293	1.3511001	-0.15806559	1.514883	1.3495781	0.20358464	1.4433216	1.380796	0.016257927	1.5105437	1.0283507	-0.20948024	1.4582068	1.033991	0.26742674	1.6912715	0.85867255	-0.20973093	1.6284603	0.85658728	0.28185789
456	1.82	1.6419129	0.033372061	-0.0085679885	1.4971932	0.072609148	0.16710653	1.517394	0.069738265	-0.038494731	1.4144657	0.18289902	0.17354264	1.5147864	0.086229669	0.047251415	1.4558625	0.18375962	0.093614719	1.4415263	0.045242286	0.002911189	1.3683881	0.19703922	0.10410064	1.6000874	0.4362526	-0.058876117	1.6696067	0.46650856	0.20648582	1.5661343	0.43816266	0.059016142	1.6773503	0.45108786	0.072882755	1.5612177	0.83003585	-0.13766614	1.5236184	0.80797695	0.20180507	1.6266032	0.87969792	-0.08722255	1.6100842	0.87459597	0.15704575	1.4294207	0.93985803	0.028785279	1.5403697	1.3525603	-0.15806556	1.5208132	1.3504456	0.20348642	1.449115	1.3817318	0.016230186	1.5184516	1.0294555	-0.20998412	1.4612343	1.035484	0.26661229	1.7022461	0.86263267	-0.20873406	1.6280482	0.8551674	0.28292799
457	1.824	1.6419972	0.033372188	-0.0086215413	1.5158203	0.071453358	0.16827228	1.5174727	0.070032386	-0.038436959	1.4303246	0.17935929	0.17372224	1.5151005	0.086595439	0.047265598	1.4716489	0.18079515	0.093676265	1.4416854	0.045685159	0.0031785978	1.3835667	0.19172404	0.1043321	1.6006472	0.43634117	-0.059063025	1.6795436	0.46903167	0.20576246	1.5675251	0.43853264	0.059105926	1.6858564	0.45438983	0.072564368	1.5663194	0.83063059	-0.13711856	1.530613	0.80978102	0.20228781	1.6313494	0.8804306	-0.087716374	1.6164838	0.87626762	0.15638505	1.4351992	0.94068911	0.029152449	1.5462655	1.3539092	-0.15803921	1.5267443	1.3512331	0.20340354	1.4549154	1.382602	0.016213363	1.5263096	1.0305187	-0.21046929	1.46445	1.0369501	0.26588689	1.7131476	0.8666169	-0.20772106	1.6276055	0.85379144	0.28402427
458	1.828	1.6420868	0.03337303	-0.0086802429	1.5347979	0.070364849	0.16935978	1.5175529	0.070348768	-0.038358834	1.4463629	0.17569277	0.17389595	1.5155904	0.087002485	0.047298838	1.4876421	0.1777474	0.093737339	1.4418389	0.046140688	0.0034854492	1.3984312	0.18635067	0.10465446	1.6012028	0.43644786	-0.059265044	1.689365	0.47149164	0.20498311	1.5689821	0.43890983	0.059144217	1.6941087	0.45751744	0.072111441	1.5713606	0.83119531	-0.13652114	1.5376745	0.81151077	0.20277279	1.6361501	0.88109053	-0.088175423	1.6228979	0.87785335	0.15572841	1.4409571	0.94149721	0.029533148	1.5521195	1.3551506	-0.15799904	1.5326817	1.3519426	0.2033296	1.4607233	1.3833967	0.016190415	1.5341361	1.0315253	-0.21094966	1.4676607	1.0383612	0.26521188	1.7239691	0.87061839	-0.20669227	1.6271532	0.85245972	0.2851634
459	1.832	1.6421858	0.033371836	-0.0087465459	1.5541645	0.069402809	0.17033514	1.517639	0.070685869	-0.038263095	1.4625791	0.17191824	0.1740572	1.516051	0.087430831	0.047359138	1.5040138	0.17462236	0.093774628	1.4419975	0.046602312	0.0038129405	1.413355	0.18081616	0.10496501	1.6017519	0.43657035	-0.059485419	1.6990544	0.47388591	0.20414614	1.5704416	0.43929621	0.059131905	1.702187	0.46049216	0.071545431	1.5762227	0.83166714	-0.13619232	1.5448045	0.81316078	0.20325807	1.6410795	0.88166887	-0.088590062	1.6293509	0.87934757	0.15508784	1.4465759	0.94229798	0.029914983	1.5579499	1.3562998	-0.15796149	1.538625	1.3525676	0.20326469	1.4665368	1.3841207	0.016152445	1.541939	1.0324651	-0.2114372	1.4707266	1.0396859	0.26454984	1.7347057	0.87463077	-0.20565061	1.6267182	0.85117421	0.28632903
460	1.836	1.642293	0.03336381	-0.0088217095	1.5738129	0.068568969	0.17117936	1.5177388	0.071035834	-0.038148154	1.4789825	0.16805524	0.17420719	1.5162817	0.087892861	0.047494069	1.5207799	0.17142308	0.093723186	1.4421704	0.047070085	0.0041564113	1.4293908	0.17486079	0.10505496	1.6023137	0.43670036	-0.059721379	1.7085955	0.47621105	0.20325976	1.5718477	0.43967659	0.059131219	1.7101155	0.46330121	0.070973361	1.5807842	0.83197357	-0.13637428	1.5520088	0.81472527	0.20374236	1.6460911	0.88214888	-0.088972326	1.6358294	0.8807435	0.15446367	1.4518215	0.94313461	0.030328221	1.5637764	1.3573659	-0.15793324	1.5445705	1.3531018	0.20321402	1.4723518	1.3847868	0.016105082	1.5497171	1.033338	-0.21193756	1.4736213	1.0409023	0.26388599	1.745363	0.87864556	-0.20459922	1.6263205	0.84993439	0.28746702
461	1.84	1.6424034	0.033344964	-0.008904677	1.5935933	0.067824873	0.1719007	1.5178553	0.07138965	-0.038001203	1.4955779	0.1641183	0.17434867	1.5161326	0.0884076	0.047758145	1.5378394	0.16816928	0.09346628	1.4423579	0.047548976	0.0045336486	1.4473101	0.16829282	0.10479012	1.6029163	0.436829	-0.059963313	1.7179776	0.47846345	0.20233979	1.5732695	0.44002437	0.059156586	1.7178944	0.46591323	0.070477461	1.5850796	0.83210889	-0.13697634	1.5592983	0.81619814	0.20422489	1.6511221	0.88251869	-0.089333786	1.6422994	0.88203158	0.15384726	1.4564308	0.94405737	0.030833949	1.5696164	1.3583473	-0.15790887	1.5505234	1.3535426	0.20318052	1.4781685	1.3853969	0.016067868	1.5574796	1.0341515	-0.21244611	1.4765013	1.0420113	0.263245	1.7559692	0.88265068	-0.20353682	1.6259535	0.84873239	0.28853517
462	1.844	1.6425116	0.0333154	-0.0089922757	1.6133777	0.067115187	0.17252763	1.517985	0.071744458	-0.037802728	1.5123609	0.16011905	0.17448622	1.5157035	0.088967615	0.048133886	1.5550651	0.16492228	0.092956184	1.442559	0.048038438	0.0049703207	1.4663673	0.16142215	0.10438168	1.603571	0.43695026	-0.060199796	1.7271983	0.48063326	0.20140383	1.5748283	0.4403256	0.059178419	1.7255431	0.46829736	0.070068338	1.5892895	0.83213211	-0.1376394	1.5666809	0.81757351	0.204704	1.6561001	0.88276668	-0.089685853	1.6487191	0.88320277	0.15323355	1.4604897	0.94504195	0.031456459	1.575476	1.3592362	-0.15787689	1.5564889	1.3538866	0.20316417	1.4839929	1.3859391	0.016061972	1.5652538	1.0349225	-0.21294371	1.4796423	1.043045	0.26267718	1.7665869	0.88662745	-0.20245657	1.6255859	0.84755384	0.28953641
463	1.848	1.6426139	0.033279305	-0.0090789564	1.6331134	0.066399109	0.1730821	1.5181203	0.072105279	-0.037544189	1.5293219	0.15606866	0.17462535	1.5153659	0.089541701	0.048518248	1.572193	0.16175763	0.092397767	1.4427689	0.048538119	0.0054738929	1.4845796	0.15499871	0.10431609	1.6042751	0.43706148	-0.060423612	1.7362557	0.48270347	0.20046491	1.5765656	0.44058302	0.05918944	1.733088	0.4704268	0.069732954	1.5935664	0.83209913	-0.13808269	1.5741368	0.81884767	0.20517319	1.6609335	0.88287783	-0.090044349	1.6550662	0.88424791	0.15262755	1.4645867	0.94595227	0.032136443	1.5813462	1.3600306	-0.1578293	1.5624586	1.3541331	0.20316763	1.4898299	1.3864031	0.016092616	1.5730665	1.0356706	-0.21340593	1.4831705	1.0440477	0.26220971	1.7772781	0.89055451	-0.20135276	1.625196	0.84638706	0.29049992
